<?xml version="1.0" encoding="UTF-8"?>
<svg id="Layer_2" data-name="Layer 2" xmlns="http://www.w3.org/2000/svg" viewBox="0 0 78.97 29.53">
  <defs>
    <style>
      .cls-1 {
        fill: #edf4f5;
      }
    </style>
  </defs>
  <g id="Layer_1-2" data-name="Layer 1">
    <g>
      <path class="cls-1" d="M78.97,0c-2.61,2.27-5.71,3.97-8.88,5.38-3.19,1.38-6.51,2.51-9.89,3.35-3.37.87-6.81,1.48-10.26,1.94-3.46.4-6.93.68-10.41.73-6.93.09-13.98-.35-20.77-2.12-3.39-.87-6.69-2.11-9.82-3.63C5.81,4.11,2.9,2.25,0,.39c3.19,1.33,6.27,2.87,9.47,4.03,3.18,1.2,6.45,2.12,9.76,2.79,3.32.63,6.68,1.07,10.06,1.26,3.38.23,6.78.3,10.18.21,6.8-.08,13.58-.75,20.25-2.01,3.34-.64,6.64-1.46,9.88-2.53,3.25-1.04,6.4-2.36,9.36-4.13Z"/>
      <path class="cls-1" d="M8.58,9.33c3.62,2.3,7.49,3.88,11.48,5,4,1.11,8.11,1.75,12.24,2.07,4.14.3,8.31.29,12.48-.04,4.17-.34,8.32-.99,12.51-1.91-3.8,1.99-7.98,3.27-12.23,4.02-4.26.75-8.62.98-12.96.65-4.33-.33-8.64-1.21-12.71-2.77-4.05-1.55-7.92-3.83-10.81-7.02Z"/>
      <path class="cls-1" d="M34.32,22.67c3.25.17,6.44.05,9.61-.24.79-.09,1.58-.19,2.37-.26l2.36-.33,2.35-.39c.78-.14,1.55-.32,2.33-.48,1.55-.34,3.08-.71,4.59-1.18.77-.19,1.51-.46,2.26-.71l1.12-.38,1.11-.43c2.95-1.15,5.8-2.57,8.56-4.32-2.19,2.42-4.94,4.34-7.88,5.82l-1.1.56-1.14.47c-.76.32-1.52.64-2.31.89-1.56.55-3.15.96-4.75,1.34-.81.15-1.61.32-2.43.45-.81.11-1.63.25-2.44.34l-2.46.19c-.82.04-1.64.05-2.46.06-3.27-.02-6.59-.37-9.69-1.4Z"/>
      <path class="cls-1" d="M30.84,25.75c1.69.74,3.39,1.12,5.11,1.37,1.72.25,3.46.37,5.2.39,1.74.02,3.49-.04,5.24-.21,1.75-.17,3.48-.41,5.25-.94-1.37,1.28-3.18,2.01-4.96,2.5-1.81.48-3.68.68-5.55.66-1.87-.02-3.74-.29-5.54-.86-1.77-.58-3.55-1.47-4.75-2.91Z"/>
    </g>
  </g>
</svg>